<svg width="23" height="23" viewBox="0 0 23 23" fill="none" xmlns="http://www.w3.org/2000/svg">
<path d="M9.17125 11.9408L6.24834 14.8637" stroke="white" stroke-miterlimit="10" stroke-linecap="round" stroke-linejoin="round"/>
<path d="M6.27708 11.9696L9.2 14.8925" stroke="white" stroke-miterlimit="10" stroke-linecap="round" stroke-linejoin="round"/>
<path d="M12.9662 13.4167H12.9758" stroke="white" stroke-miterlimit="10" stroke-linecap="round" stroke-linejoin="round"/>
<path d="M16.7421 13.4167H16.7517" stroke="white" stroke-miterlimit="10" stroke-linecap="round" stroke-linejoin="round"/>
<path d="M14.8542 15.3142V15.295" stroke="white" stroke-miterlimit="10" stroke-linecap="round" stroke-linejoin="round"/>
<path d="M14.8542 11.5383V11.5192" stroke="white" stroke-miterlimit="10" stroke-linecap="round" stroke-linejoin="round"/>
<path d="M1.91667 14.375C1.91667 19.1667 3.83334 21.0833 8.62501 21.0833H14.375C19.1667 21.0833 21.0833 19.1667 21.0833 14.375V12.4583C21.0833 7.66667 19.1667 5.75 14.375 5.75H8.62501C5.03126 5.75 3.05709 6.82333 2.29042 9.39167" stroke="white" stroke-linecap="round" stroke-linejoin="round"/>
<path d="M12.4679 1.91666L12.4583 2.88457C12.4487 3.41166 12.0271 3.83332 11.5 3.83332H11.4712C10.9442 3.83332 10.5225 4.26457 10.5225 4.79166C10.5225 5.31874 10.9537 5.74999 11.4808 5.74999H12.4392" stroke="white" stroke-linecap="round" stroke-linejoin="round"/>
</svg>
