<svg width="99" height="84" viewBox="0 0 99 84" fill="none" xmlns="http://www.w3.org/2000/svg">
<path d="M92.4632 83.9997H61.2024C59.0824 82.6715 57.8945 80.1307 58.4142 77.5322C59.0824 74.1747 62.3491 71.9969 65.7066 72.6651C66.0902 72.7435 66.4614 72.8548 66.812 72.9992C68.0329 71.3205 70.1612 70.4089 72.3308 70.842C73.3207 71.04 74.1992 71.4937 74.9004 72.1248C76.1131 69.518 78.9838 67.9754 81.9247 68.5652C85.3771 69.254 87.6126 72.6073 86.9238 76.0597C86.8661 76.3567 86.7836 76.6454 86.6887 76.9217C87.0434 76.93 87.4023 76.9671 87.7652 77.0372C90.9742 77.6807 93.0654 80.7865 92.4632 83.9997Z" fill="#A8DAFF"/>
<path fill-rule="evenodd" clip-rule="evenodd" d="M2.30813 83.145C2.5097 83.4757 2.79766 83.7606 3.14801 83.9996H14.1575C14.5463 83.7475 14.8582 83.4528 15.0694 83.1254C16.2356 83.5707 17.6658 83.6656 19 83.3153V73.3354C18.6257 73.4696 18.2897 73.6366 17.997 73.8265C16.8787 73.044 15.1318 72.7657 13.5672 73.2142C12.281 73.5842 11.4267 74.3602 11.1868 75.2312C10.0542 74.8448 8.69596 74.7859 7.43855 75.146C5.1541 75.8009 4.08387 77.5952 5.04372 79.1537C5.11411 79.2628 5.1909 79.3687 5.27408 79.4713C4.98133 79.504 4.68857 79.5597 4.40062 79.6448C2.40412 80.2178 1.46826 81.7829 2.30813 83.145ZM13.5864 78.5381C13.6088 78.4508 13.628 78.3624 13.644 78.2729C13.7048 78.2904 13.7688 78.3068 13.836 78.3221C13.7448 78.3908 13.6632 78.4628 13.5864 78.5381Z" fill="#A8DAFF"/>
<path d="M54.6935 42.4771L61.2476 78.1059L44.023 79.3103L49.583 42.8566L54.6935 42.4771Z" fill="#A8DAFF"/>
<path d="M61.8622 83.9999H50.3379C50.3833 83.7936 50.4411 83.5915 50.5112 83.3894C50.606 83.1296 50.7257 82.8821 50.8618 82.6552C49.8265 81.6323 49.4181 80.0608 49.9502 78.6048C50.1895 77.9366 50.5978 77.3798 51.1093 76.9591C49.4305 75.8413 48.6675 73.6923 49.3851 71.7125C50.2266 69.3945 52.788 68.1983 55.106 69.0397C55.3068 69.114 55.4979 69.2006 55.6794 69.2996C55.7247 69.0521 55.7866 68.8088 55.8732 68.5654C56.6652 66.3917 59.0657 65.2698 61.2394 66.0617C63.4131 66.8495 64.535 69.2501 63.7431 71.4238C63.5575 71.9394 63.2811 72.3931 62.9388 72.7767C64.2009 73.4242 64.8114 74.9256 64.3164 76.295C64.1473 76.757 63.8709 77.1488 63.5286 77.454C64.4443 78.5553 64.7701 80.1021 64.2463 81.5457C63.8215 82.713 62.9305 83.575 61.8622 83.9999Z" fill="#A8DAFF"/>
<path d="M98.5348 84.0001H86.1196C86.0783 83.4515 86.1567 82.8823 86.3712 82.3379C86.631 81.682 87.0476 81.1417 87.5632 80.7375C85.9298 79.5908 85.2286 77.4419 85.9917 75.5074C86.8826 73.2347 89.4482 72.1169 91.7208 73.0079C91.9161 73.0849 92.1031 73.1742 92.2818 73.276C92.3272 73.0367 92.3973 72.7934 92.4922 72.5583C93.3253 70.4258 95.73 69.3782 97.8583 70.2155C98.1017 70.3103 98.3244 70.4258 98.5348 70.5578V84.0001Z" fill="#A8DAFF"/>
<path d="M49.5009 76.2948C48.8327 78.5015 46.7044 79.8049 44.7534 79.211C44.7204 79.2027 44.6916 79.1903 44.6586 79.1821C44.6503 79.4254 44.6091 79.677 44.5348 79.9286C44.1182 81.3063 42.786 82.123 41.5651 81.7517C40.3442 81.3805 39.6925 79.9616 40.1091 78.584C40.1118 78.5758 40.116 78.5675 40.1215 78.5593C40.0183 78.5469 39.9193 78.5263 39.8162 78.4933C38.6819 78.1509 38.0756 76.8352 38.4675 75.5524C38.7067 74.7604 39.2759 74.1665 39.94 73.9108C39.1934 73.09 38.8964 71.8196 39.2759 70.5698C39.742 69.0354 41.0742 68.0414 42.4436 68.0826C43.1448 66.5565 44.7369 65.7068 46.2136 66.1523C47.8428 66.6472 48.709 68.5363 48.1522 70.3759C48.0367 70.7595 47.8634 71.1101 47.6531 71.4236C49.2906 72.2155 50.1114 74.282 49.5009 76.2948Z" fill="#A8DAFF"/>
<path d="M44.4647 84.0005H17.6957C15.9427 82.9982 14.7383 81.1338 14.6805 78.9684C14.5898 75.6687 17.1924 72.9258 20.4922 72.835C21.2676 72.8144 22.0183 72.9464 22.7071 73.198C22.9092 71.1852 24.5797 69.5889 26.6544 69.5312C27.3597 69.5147 28.0238 69.6714 28.6095 69.9684C29.5912 68.1742 31.472 66.9368 33.6663 66.879C36.9454 66.7924 39.6801 69.3786 39.7667 72.6618C39.7667 72.6865 39.7667 72.7099 39.7667 72.7319C40.6906 72.138 41.7795 71.7832 42.9551 71.7502C46.3785 71.6595 49.2287 74.3611 49.3194 77.7805C49.3978 80.7997 47.3066 83.3694 44.4647 84.0005Z" fill="#A8DAFF"/>
<path d="M87.2952 84H59.5528C58.4432 82.2058 58.2782 79.8919 59.3176 77.8832C60.8891 74.8433 64.6302 73.6554 67.6701 75.2269C68.0207 75.4084 68.3424 75.6187 68.6435 75.8538C70.281 74.5793 72.5743 74.2906 74.5418 75.3094C75.4409 75.7713 76.1545 76.4519 76.6577 77.2521C78.5427 75.0825 81.7269 74.3978 84.3915 75.7755C87.3983 77.3305 88.6399 80.9437 87.2952 84Z" fill="white"/>
<path fill-rule="evenodd" clip-rule="evenodd" d="M4.65148 83.9997H20V78.3858C19.983 78.3899 19.9659 78.3939 19.9531 78.3979C19.5946 77.2558 18.5275 76.38 17.1958 76.271C16.0989 76.1822 15.0873 76.6343 14.4513 77.393C13.8709 76.6262 12.9532 76.0975 11.8861 76.0127C9.94409 75.8513 8.23253 77.2114 8.0618 79.0518C8.05041 79.1809 8.04757 79.3101 8.05326 79.4392C7.82704 79.3666 7.59656 79.3222 7.349 79.302C5.65451 79.1607 4.15637 80.3513 4.01125 81.9576C3.94295 82.7204 4.19051 83.4388 4.65148 83.9997ZM14.3446 81.4168C14.4101 81.3414 14.4713 81.2634 14.5282 81.1827C14.5623 81.2204 14.5979 81.258 14.6349 81.2957C14.5367 81.332 14.4385 81.3724 14.3446 81.4168Z" fill="white"/>
<path d="M54.2318 47.237L59.3175 74.8723L45.9577 75.8086L50.268 47.534L54.2318 47.237Z" fill="white"/>
<path d="M64.4278 84H49.8347C49.6532 83.2782 49.6739 82.4987 49.9502 81.748C50.1895 81.0798 50.5978 80.5229 51.1093 80.0981C49.4305 78.9844 48.6675 76.8314 49.3851 74.8557C50.2266 72.5376 52.788 71.3415 55.106 72.1829C55.3068 72.2571 55.4979 72.3437 55.6794 72.4427C55.7247 72.1953 55.7866 71.9519 55.8732 71.7085C56.6652 69.5349 59.0657 68.4129 61.2394 69.2049C63.4131 69.9927 64.535 72.3932 63.7431 74.5669C63.5575 75.0784 63.2811 75.5362 62.9388 75.9198C64.2009 76.5674 64.8114 78.0688 64.3164 79.4382C64.1473 79.9001 63.8709 80.292 63.5286 80.5972C64.2999 81.5252 64.6505 82.7668 64.4278 84Z" fill="white"/>
<path d="M98.5345 84H85.7728C85.4057 82.7296 85.6078 81.3107 86.4492 80.1641C87.8887 78.1925 90.6523 77.7635 92.6238 79.2072C92.793 79.3309 92.9497 79.4629 93.0982 79.6073C93.2054 79.3845 93.3333 79.17 93.4818 78.9638C94.6614 77.3511 96.7856 76.8396 98.5345 77.6357V84Z" fill="white"/>
<path d="M48.5354 84H44.3819C44.2499 83.703 44.1633 83.373 44.1344 83.0224C44.1344 83.0142 44.1344 83.0018 44.1344 82.9936C44.0354 83.0183 43.9364 83.0389 43.8292 83.0431C42.6495 83.1338 41.6101 82.1192 41.5111 80.7869C41.4493 79.9578 41.7669 79.203 42.2948 78.7246C41.3008 78.2255 40.5666 77.1448 40.4717 75.8455C40.3521 74.2452 41.2389 72.8387 42.5341 72.385C42.6372 70.7062 43.8168 69.341 45.3553 69.2296C47.0506 69.1017 48.5437 70.5536 48.6839 72.4674C48.7128 72.8675 48.6798 73.2594 48.5973 73.6265C50.408 73.775 51.9177 75.4083 52.0744 77.5078C52.2435 79.8052 50.7298 81.7892 48.6922 81.9377C48.6592 81.9418 48.6262 81.9418 48.5932 81.9418C48.6757 82.1728 48.7293 82.4244 48.7458 82.6842C48.7829 83.1544 48.7004 83.604 48.5354 84Z" fill="white"/>
<path d="M51.7939 84.0007H17.221C17.1921 80.7505 19.77 78.0654 23.0326 77.9787C23.8122 77.9581 24.5588 78.0901 25.2476 78.3417C25.4497 76.3289 27.1202 74.7326 29.199 74.6749C29.9002 74.6543 30.5643 74.8151 31.15 75.1121C32.1316 73.3179 34.0125 72.0805 36.2068 72.0227C39.49 71.932 42.2205 74.5223 42.3072 77.8055C42.3072 77.8303 42.3085 77.8536 42.3113 77.8756C43.2311 77.2817 44.3241 76.9269 45.4996 76.894C48.919 76.8032 51.7691 79.5007 51.8599 82.9242C51.8681 83.2913 51.8475 83.6501 51.7939 84.0007Z" fill="white"/>
<path d="M92.5254 8.01581C92.6243 8.53139 92.612 9.04285 92.5047 9.52131H71.1761C71.2009 8.01993 72.265 6.69179 73.7953 6.39069C74.2036 6.31232 74.6037 6.31232 74.9873 6.38244C75.2884 5.15329 76.2742 4.14688 77.5982 3.88702C78.4644 3.72204 79.3141 3.8994 80.0111 4.33248C80.5226 3.31782 81.4795 2.54238 82.6839 2.3114C84.7504 1.90719 86.755 3.25595 87.1592 5.3224C87.1674 5.3774 87.1757 5.43102 87.1839 5.48326C87.5015 5.31415 87.848 5.19041 88.2192 5.11617C90.2073 4.72845 92.1376 6.02772 92.5254 8.01581Z" fill="white"/>
<path fill-rule="evenodd" clip-rule="evenodd" d="M13.9826 22.7819C14.0101 22.9303 14.0225 23.0775 14.0197 23.2232H0C0.202108 22.3158 0.919799 21.5692 1.89322 21.3795C2.19019 21.3217 2.48304 21.3217 2.76765 21.3712C2.92438 20.5174 3.58845 19.8039 4.49175 19.6265C5.23832 19.478 5.96838 19.7337 6.46334 20.2369C6.80156 19.6389 7.38726 19.1893 8.11733 19.0449C9.43722 18.7892 10.7159 19.6512 10.9757 20.9711C10.9922 21.0646 11.0046 21.1581 11.0128 21.2516C11.1613 21.1856 11.3181 21.132 11.4831 21.099C12.638 20.8763 13.7557 21.627 13.9826 22.7819ZM6.84693 23.149C6.79744 23.0995 6.75069 23.0472 6.7067 22.9922C6.6847 23.0225 6.6627 23.0527 6.6407 23.083C6.70944 23.1022 6.77819 23.1242 6.84693 23.149Z" fill="white"/>
<path fill-rule="evenodd" clip-rule="evenodd" d="M37.4402 2.95597C37.465 3.07146 37.4732 3.18283 37.4732 3.29832H26.5264C26.6831 2.58888 27.2441 2.0073 28.003 1.85881C28.234 1.81344 28.465 1.81344 28.6877 1.85056C28.8073 1.18237 29.327 0.625538 30.0323 0.489425C30.6139 0.373934 31.1831 0.571917 31.5708 0.967885C31.8348 0.501798 32.2926 0.147078 32.8618 0.035712C33.893 -0.166396 34.8912 0.510048 35.0933 1.54121C35.107 1.61271 35.1167 1.68558 35.1222 1.75982C35.2376 1.7062 35.3614 1.66495 35.4893 1.6402C36.3926 1.46284 37.267 2.05267 37.4402 2.95597ZM31.8719 3.24057C31.8334 3.20208 31.7963 3.16083 31.7606 3.11683C31.7441 3.14158 31.7276 3.16495 31.7111 3.18695C31.7661 3.20345 31.8197 3.22132 31.8719 3.24057Z" fill="white"/>
<path d="M56.9788 45.2226C57.0283 47.124 54.0049 51.3559 52.6686 54.7134C49.5091 49.8298 47.9142 46.7418 47.8839 45.4494C47.8344 43.515 49.8968 40.7927 52.3138 40.7308C54.7309 40.6689 56.9334 43.317 56.9788 45.2226Z" fill="#F05A2A"/>
<path d="M56.1332 44.542C56.1703 46.097 53.6996 49.5576 52.6066 52.2964C50.0273 48.3065 48.7239 45.7835 48.6964 44.7276C48.6552 43.1479 50.3421 40.9206 52.3179 40.8711C54.2936 40.8216 56.0919 42.987 56.1332 44.542Z" fill="#F8EC3A"/>
<path d="M55.2547 43.6835C55.2877 44.8797 53.3821 47.5483 52.5407 49.6602C50.5526 46.5832 49.5476 44.6391 49.5256 43.8279C49.4967 42.607 50.796 40.8953 52.318 40.854C53.84 40.8169 55.2258 42.4833 55.2547 43.6835Z" fill="white"/>
<path d="M52.8583 45.33C52.6108 46.5715 50.0329 48.8772 48.6759 50.8571C47.3395 47.2301 46.7538 44.9959 46.9188 44.1545C47.1704 42.8923 48.9069 41.424 50.4825 41.7374C52.0622 42.0468 53.1016 44.0885 52.8583 45.33Z" fill="#F05A2A"/>
<path d="M52.4045 44.7648C52.2065 45.7794 50.0988 47.6644 48.9893 49.2854C47.8949 46.3184 47.4164 44.4912 47.5539 43.8037C47.756 42.7684 49.1749 41.5723 50.4659 41.828C51.7528 42.0837 52.6066 43.7501 52.4045 44.7648Z" fill="#F8EC3A"/>
<path d="M51.963 44.0805C51.8063 44.86 50.1853 46.316 49.3315 47.5617C48.4873 45.2766 48.1175 43.8687 48.222 43.338C48.3828 42.5461 49.4759 41.6222 50.4658 41.8202C51.4598 42.014 52.1156 43.2968 51.963 44.0805Z" fill="white"/>
<path d="M53.7455 42.3726C54.0631 43.1109 53.5517 45.2475 53.5599 46.7736C51.5498 45.3602 50.4362 44.4033 50.2189 43.9029C49.8931 43.1563 50.2684 41.7622 51.2047 41.3538C52.141 40.9496 53.4238 41.6343 53.7455 42.3726Z" fill="#F05A2A"/>
<path d="M53.3041 42.2404C53.5639 42.8426 53.1473 44.5915 53.1515 45.8371C51.5098 44.6822 50.5997 43.9013 50.4209 43.4943C50.157 42.8797 50.4622 41.7413 51.2294 41.4072C51.9965 41.0773 53.0401 41.6382 53.3041 42.2404Z" fill="#F8EC3A"/>
<path d="M52.8256 42.0424C53.0277 42.5085 52.706 43.8531 52.7101 44.8142C51.4425 43.926 50.7399 43.3238 50.6024 43.0076C50.4003 42.5374 50.6354 41.6588 51.2252 41.4031C51.8151 41.1474 52.6235 41.5805 52.8256 42.0424Z" fill="white"/>
<path d="M47.7615 37.5349C46.3673 37.4249 44.8632 38.2814 43.2491 40.1045C41.7848 41.7544 40.9063 44.5756 40.1803 44.2003C39.4544 43.8291 39.9452 37.9679 41.8137 34.1403C42.7954 32.1302 44.2775 30.5573 46.2601 29.4216L47.7615 37.5349Z" fill="#C6421E"/>
<path d="M57.5079 29.4216C59.4932 30.5573 60.9767 32.1302 61.9584 34.1403C63.8228 37.9679 64.3177 43.8291 63.5918 44.2003C62.8658 44.5756 61.9873 41.7544 60.523 40.1045C58.9062 38.2814 57.402 37.4249 56.0107 37.5349L57.5079 29.4216Z" fill="#AA290B"/>
<path d="M47.5223 42.2868C47.1923 41.2557 44.9485 33.9674 44.9485 24.922C44.9485 17.4399 49.2711 13.1915 51.8861 11.0962C54.5053 13.1915 58.8238 17.4399 58.8238 24.922C58.8238 33.9674 56.5841 41.2557 56.25 42.2868H47.5223Z" fill="#2B2B38"/>
<path d="M46.611 7.26871H57.1618C59.1169 11.0139 60.6719 15.7655 60.6719 20.8182C60.6719 32.2724 57.8342 39.074 57.4134 40.3815H46.3635C45.9428 39.074 43.105 32.2724 43.105 20.8182C43.105 15.7655 44.66 11.0139 46.611 7.26871Z" fill="white"/>
<path d="M57.1616 7.26824H46.6107C48.3224 3.98914 50.3394 1.48959 51.8861 0.24807C53.4329 1.48959 55.4498 3.98914 57.1616 7.26824Z" fill="#C6421E"/>
<path d="M60.6718 20.8182C60.6718 32.2724 57.834 39.074 57.4133 40.3815H51.8863V7.26871H57.1617C59.1168 11.0139 60.6718 15.7655 60.6718 20.8182Z" fill="#F0F1F1"/>
<path d="M51.8863 19.7952C53.9752 19.7952 55.6686 18.1018 55.6686 16.0129C55.6686 13.924 53.9752 12.2306 51.8863 12.2306C49.7974 12.2306 48.104 13.924 48.104 16.0129C48.104 18.1018 49.7974 19.7952 51.8863 19.7952Z" fill="#A5DCF0"/>
<path fill-rule="evenodd" clip-rule="evenodd" d="M49.6757 19.9392C47.5185 18.7142 46.7637 15.9796 47.9846 13.8224C49.2055 11.6652 51.9443 10.9104 54.1014 12.1313C56.2545 13.3522 57.0135 16.0909 55.7926 18.2481C54.5675 20.4012 51.8329 21.1601 49.6757 19.9392ZM53.6106 12.9933C51.9319 12.0405 49.7994 12.6303 48.8466 14.3091C47.8938 15.9878 48.4837 18.1244 50.1624 19.0731C51.8453 20.0259 53.9777 19.436 54.9305 17.7573C55.8792 16.0786 55.2893 13.9461 53.6106 12.9933Z" fill="#2B2B38"/>
<path opacity="0.3" d="M50.0056 19.3577C48.1701 18.3183 47.5225 15.9838 48.5661 14.1483C49.6055 12.3169 51.9359 11.6694 53.7714 12.7088C55.6069 13.7523 56.2503 16.0828 55.2109 17.9182C54.1715 19.7537 51.8411 20.3972 50.0056 19.3577Z" fill="#E6E6E7"/>
<path opacity="0.5" d="M48.9415 17.0935C48.5249 15.8396 48.9456 14.4083 50.0716 13.5917C51.2018 12.775 52.6908 12.8245 53.7508 13.6123C52.5464 14.1017 51.628 14.5747 50.9955 15.0312C50.3439 15.5041 49.6592 16.1916 48.9415 17.0935Z" fill="white"/>
<path d="M53.1524 33.4759C53.1524 35.0268 52.9874 44.2331 51.9109 44.2331C51.9109 44.2331 51.9095 44.2331 51.9068 44.2331C50.8302 44.2331 50.6653 35.0268 50.6653 33.4759C50.6653 31.9292 51.1602 30.7743 51.9068 30.7743H51.9109C52.6575 30.7743 53.1524 31.9292 53.1524 33.4759Z" fill="#C6421E"/>
<path d="M51.8863 0.24807C53.433 1.48959 55.45 3.98914 57.1617 7.26824H51.8863V0.24807Z" fill="#AA290B"/>
<path d="M53.1525 33.4759C53.1525 35.0268 52.9875 44.2331 51.911 44.2331C51.911 44.2331 51.9096 44.2331 51.9069 44.2331V30.7743H51.911C52.6575 30.7743 53.1525 31.9292 53.1525 33.4759Z" fill="#AA290B"/>
</svg>
