<svg width="26" height="28" viewBox="0 0 26 28" fill="none" xmlns="http://www.w3.org/2000/svg">
<path d="M15.6281 11.3548L16.9224 10.0605" stroke="#F99885" stroke-width="1.7" stroke-miterlimit="10" stroke-linecap="round" stroke-linejoin="round"/>
<path d="M7.86203 19.1204L12.3921 14.5903" stroke="#F99885" stroke-width="1.7" stroke-miterlimit="10" stroke-linecap="round" stroke-linejoin="round"/>
<path d="M16.9222 19.1207L7.86203 10.0605" stroke="#F99885" stroke-width="1.7" stroke-miterlimit="10" stroke-linecap="round" stroke-linejoin="round"/>
<path d="M1.39014 9.51684C1.39014 8.06717 2.16675 6.721 3.42227 5.98322L11.1107 1.54363C12.3662 0.818792 13.9194 0.818792 15.1879 1.54363L22.8763 5.98322C24.1318 6.70805 24.9085 8.05423 24.9085 9.51684V18.3701C24.9085 19.8198 24.1318 21.166 22.8763 21.9037L15.1879 26.3433C13.9324 27.0682 12.3791 27.0682 11.1107 26.3433L3.42227 21.9037C2.16675 21.1789 1.39014 19.8327 1.39014 18.3701V14.7977" stroke="#F99885" stroke-width="1.7" stroke-linecap="round" stroke-linejoin="round"/>
</svg>
